<?xml version="1.0" encoding="utf-8"?>
<!-- Generator: Adobe Illustrator 18.0.0, SVG Export Plug-In . SVG Version: 6.00 Build 0)  -->
<!DOCTYPE svg PUBLIC "-//W3C//DTD SVG 1.1//EN" "http://www.w3.org/Graphics/SVG/1.1/DTD/svg11.dtd">
<svg version="1.1" id="layer_1" xmlns="http://www.w3.org/2000/svg" xmlns:xlink="http://www.w3.org/1999/xlink" x="0px" y="0px"
	 viewBox="0 0 345.8 247.5" enable-background="new 0 0 345.8 247.5" xml:space="preserve">
<g id="background">
</g>
<g id="we_chat">
</g>
<g id="bubbles">
	<g>
		<path fill="#0F9BD7" d="M145.2,33.4c10.7-11.1,25.5-18,42-18c21.9,0,40.9,12.2,51.1,30.3c8.8-3.9,18.6-6.1,28.9-6.1
			c39.4,0,71.4,32.2,71.4,72c0,39.8-32,72-71.4,72c-4.8,0-9.5-0.5-14.1-1.4c-8.9,15.9-26,26.7-45.5,26.7c-8.2,0-15.9-1.9-22.8-5.3
			c-9.1,21.3-30.2,36.3-54.8,36.3c-25.6,0-47.5-16.2-55.9-39c-3.7,0.8-7.5,1.2-11.4,1.2c-30.5,0-55.3-25-55.3-55.8
			c0-20.7,11.1-38.7,27.6-48.4c-3.4-7.8-5.3-16.5-5.3-25.5c0-35.5,28.8-64.2,64.3-64.2C114.9,8.1,133.4,18,145.2,33.4"/>
		<path fill="#FFFFFF" d="M55.4,128.3c-0.2,0.5,0.1,0.7,0.1,0.7c0.6,0.5,1.3,0.8,1.9,1.1c3.4,1.8,6.6,2.3,9.9,2.3
			c6.8,0,11-3.6,11-9.4V123c0-5.4-4.8-7.3-9.2-8.7l-0.6-0.2c-3.4-1.1-6.3-2-6.3-4.3v-0.1c0-1.9,1.7-3.3,4.3-3.3c2.9,0,6.4,1,8.6,2.2
			c0,0,0.7,0.4,0.9-0.2c0.1-0.3,1.3-3.4,1.4-3.7c0.1-0.4-0.1-0.6-0.3-0.8c-2.6-1.6-6.1-2.6-9.7-2.6l-0.7,0c-6.2,0-10.6,3.8-10.6,9.1
			v0.1c0,5.7,4.8,7.5,9.3,8.8l0.7,0.2c3.3,1,6.1,1.9,6.1,4.2v0.1c0,2.1-1.8,3.7-4.8,3.7c-1.1,0-4.8,0-8.7-2.5
			c-0.5-0.3-0.7-0.5-1.1-0.7c-0.2-0.1-0.7-0.3-0.9,0.3L55.4,128.3z"/>
		<path fill="#FFFFFF" d="M154.8,128.3c-0.2,0.5,0.1,0.7,0.1,0.7c0.6,0.5,1.3,0.8,1.9,1.1c3.4,1.8,6.6,2.3,9.9,2.3
			c6.8,0,11-3.6,11-9.4V123c0-5.4-4.8-7.3-9.2-8.7l-0.6-0.2c-3.4-1.1-6.3-2-6.3-4.3v-0.1c0-1.9,1.7-3.3,4.3-3.3c2.9,0,6.4,1,8.6,2.2
			c0,0,0.7,0.4,0.9-0.2c0.1-0.3,1.3-3.4,1.4-3.7c0.1-0.4-0.1-0.6-0.3-0.8c-2.6-1.6-6.1-2.6-9.7-2.6l-0.7,0c-6.2,0-10.6,3.8-10.6,9.1
			v0.1c0,5.7,4.8,7.5,9.3,8.8l0.7,0.2c3.3,1,6.1,1.9,6.1,4.2v0.1c0,2.1-1.8,3.7-4.8,3.7c-1.1,0-4.8,0-8.7-2.5
			c-0.5-0.3-0.8-0.5-1.1-0.7c-0.1-0.1-0.7-0.3-0.9,0.3L154.8,128.3z"/>
		<path fill="#FFFFFF" d="M228.3,110.8c-0.6-1.9-1.4-3.5-2.6-4.9c-1.2-1.4-2.6-2.5-4.4-3.3c-1.7-0.8-3.8-1.2-6.1-1.2
			c-2.3,0-4.4,0.4-6.1,1.2c-1.7,0.8-3.2,1.9-4.4,3.3c-1.2,1.4-2,3-2.6,4.9c-0.6,1.9-0.8,3.9-0.8,6.1c0,2.2,0.3,4.2,0.8,6.1
			c0.6,1.9,1.4,3.5,2.6,4.9c1.2,1.4,2.6,2.5,4.4,3.3s3.8,1.2,6.1,1.2c2.3,0,4.3-0.4,6.1-1.2c1.7-0.8,3.2-1.9,4.4-3.3
			c1.2-1.4,2-3,2.6-4.9c0.6-1.9,0.8-3.9,0.8-6.1C229.2,114.7,228.9,112.7,228.3,110.8 M222.7,116.9c0,3.3-0.6,5.9-1.8,7.7
			c-1.2,1.8-3,2.7-5.5,2.7c-2.5,0-4.3-0.9-5.5-2.7c-1.2-1.8-1.8-4.4-1.8-7.7c0-3.3,0.6-5.9,1.8-7.7c1.2-1.8,3-2.7,5.5-2.7
			c2.5,0,4.3,0.9,5.5,2.7C222.1,111,222.7,113.6,222.7,116.9"/>
		<path fill-rule="evenodd" clip-rule="evenodd" fill="#FFFFFF" d="M274.9,126.4c-0.2-0.5-0.7-0.3-0.7-0.3c-0.8,0.3-1.7,0.6-2.6,0.7
			c-0.9,0.2-2,0.2-3.1,0.2c-2.7,0-4.9-0.8-6.5-2.4c-1.6-1.6-2.4-4.2-2.4-7.8c0-3.2,0.8-5.6,2.2-7.5c1.4-1.8,3.5-2.8,6.3-2.8
			c2.3,0,4.1,0.3,6,0.9c0,0,0.4,0.2,0.7-0.4c0.5-1.4,0.9-2.4,1.4-3.9c0.2-0.4-0.2-0.6-0.4-0.7c-0.7-0.3-2.5-0.8-3.8-1
			c-1.2-0.2-2.7-0.3-4.3-0.3c-2.4,0-4.5,0.4-6.3,1.2c-1.8,0.8-3.3,1.9-4.6,3.3c-1.2,1.4-2.1,3-2.8,4.9c-0.6,1.9-0.9,3.9-0.9,6.1
			c0,4.7,1.3,8.5,3.8,11.3c2.5,2.8,6.3,4.2,11.2,4.2c2.9,0,5.9-0.6,8-1.4c0,0,0.4-0.2,0.2-0.7L274.9,126.4z"/>
		<path fill-rule="evenodd" clip-rule="evenodd" fill="#FFFFFF" d="M303.9,109.8c-0.5-1.8-1.7-3.7-2.5-4.5c-1.2-1.3-2.4-2.3-3.6-2.8
			c-1.6-0.7-3.4-1.1-5.5-1.1c-2.4,0-4.6,0.4-6.3,1.2c-1.8,0.8-3.3,2-4.4,3.4c-1.2,1.4-2,3.1-2.6,5c-0.6,1.9-0.8,3.9-0.8,6.1
			c0,2.2,0.3,4.3,0.9,6.1c0.6,1.9,1.5,3.5,2.8,4.9c1.3,1.4,2.9,2.4,4.8,3.2c1.9,0.7,4.3,1.1,7,1.1c5.5,0,8.5-1.3,9.7-1.9
			c0.2-0.1,0.4-0.3,0.2-0.9l-1.3-3.5c-0.2-0.5-0.7-0.3-0.7-0.3c-1.4,0.5-3.3,1.4-7.9,1.4c-3,0-5.2-0.9-6.6-2.3
			c-1.4-1.4-2.1-3.5-2.2-6.4l19.2,0c0,0,0.5,0,0.6-0.5C304.5,117.8,305.1,114.1,303.9,109.8 M284.8,113.8c0.3-1.8,0.8-3.3,1.6-4.5
			c1.2-1.8,3-2.8,5.5-2.8c2.5,0,4.2,1,5.4,2.8c0.8,1.2,1.1,2.8,1.3,4.5L284.8,113.8z"/>
		<path fill-rule="evenodd" clip-rule="evenodd" fill="#FFFFFF" d="M150.2,109.8c-0.5-1.8-1.7-3.7-2.5-4.5c-1.2-1.3-2.4-2.3-3.6-2.8
			c-1.6-0.7-3.4-1.1-5.5-1.1c-2.4,0-4.6,0.4-6.3,1.2c-1.8,0.8-3.3,2-4.4,3.4c-1.2,1.4-2,3.1-2.6,5c-0.6,1.9-0.8,3.9-0.8,6.1
			c0,2.2,0.3,4.3,0.9,6.1c0.6,1.9,1.5,3.5,2.8,4.9c1.3,1.4,2.9,2.4,4.8,3.2c1.9,0.7,4.3,1.1,7,1.1c5.5,0,8.5-1.3,9.7-1.9
			c0.2-0.1,0.4-0.3,0.2-0.9l-1.3-3.5c-0.2-0.5-0.7-0.3-0.7-0.3c-1.4,0.5-3.3,1.4-7.9,1.4c-3,0-5.2-0.9-6.6-2.3
			c-1.4-1.4-2.1-3.5-2.2-6.4l19.2,0c0,0,0.5,0,0.6-0.5C150.8,117.8,151.4,114.1,150.2,109.8 M131.1,113.8c0.3-1.8,0.8-3.3,1.5-4.5
			c1.2-1.8,3-2.8,5.5-2.8c2.5,0,4.2,1,5.4,2.8c0.8,1.2,1.1,2.8,1.3,4.5L131.1,113.8z"/>
		<path fill="#FFFFFF" d="M97.3,112.8c-0.8-0.1-1.8-0.1-3-0.1c-1.6,0-3.2,0.2-4.7,0.6c-1.5,0.4-2.8,1-4,1.9
			c-1.2,0.8-2.1,1.9-2.8,3.2c-0.7,1.3-1,2.8-1,4.4c0,1.7,0.3,3.2,0.9,4.4c0.6,1.2,1.4,2.2,2.5,3c1.1,0.8,2.4,1.3,3.9,1.7
			c1.5,0.3,3.2,0.5,5.1,0.5c2,0,3.9-0.2,5.8-0.5c1.9-0.3,4.2-0.8,4.8-0.9c0.6-0.1,1.3-0.3,1.3-0.3c0.5-0.1,0.4-0.6,0.4-0.6l0-17.5
			c0-3.9-1-6.7-3-8.5c-2-1.8-5-2.7-8.8-2.7c-1.4,0-3.8,0.2-5.1,0.5c0,0-4.2,0.8-5.9,2.2c0,0-0.4,0.2-0.2,0.8l1.4,3.6
			c0.2,0.5,0.6,0.3,0.6,0.3s0.1-0.1,0.3-0.2c3.7-2,8.4-1.9,8.4-1.9c2.1,0,3.7,0.4,4.7,1.2c1,0.8,1.6,2,1.6,4.6v0.8
			C98.8,113,97.3,112.8,97.3,112.8 M89.6,126.3c-0.8-0.6-0.9-0.7-1.1-1.1c-0.4-0.6-0.6-1.4-0.6-2.5c0-1.7,0.6-2.9,1.7-3.7
			c0,0,1.7-1.4,5.6-1.4c2.7,0,5.2,0.4,5.2,0.4v8.7c0,0-2.4,0.5-5.2,0.7C91.4,127.7,89.6,126.3,89.6,126.3"/>
		<path fill-rule="evenodd" clip-rule="evenodd" fill="#FFFFFF" d="M252.1,103c0.1-0.4-0.2-0.6-0.3-0.7c-0.3-0.1-2-0.5-3.2-0.5
			c-2.4-0.1-3.8,0.3-4.9,0.8c-1.2,0.5-2.5,1.4-3.2,2.4l0-2.3c0-0.3-0.2-0.6-0.5-0.6h-4.9c-0.3,0-0.5,0.3-0.5,0.6v28.6
			c0,0.3,0.3,0.6,0.6,0.6h5c0.3,0,0.6-0.3,0.6-0.6v-14.3c0-1.9,0.2-3.8,0.6-5c0.4-1.2,1-2.1,1.7-2.8c0.7-0.7,1.5-1.2,2.4-1.4
			c0.9-0.3,1.9-0.4,2.6-0.4c1,0,2.1,0.3,2.1,0.3c0.4,0,0.6-0.2,0.7-0.5C250.9,106.1,251.9,103.5,252.1,103"/>
		<path fill-rule="evenodd" clip-rule="evenodd" fill="#FFFFFF" d="M204.7,89.7c-0.6-0.2-1.2-0.3-1.9-0.4c-0.7-0.1-1.6-0.2-2.6-0.2
			c-3.5,0-6.2,1-8.1,2.9c-1.9,1.9-3.2,4.9-3.9,8.7L188,102h-4.4c0,0-0.5,0-0.6,0.6l-0.7,4c-0.1,0.4,0.1,0.6,0.6,0.6h4.2l-4.3,24
			c-0.3,1.9-0.7,3.5-1.1,4.7c-0.4,1.2-0.8,2.1-1.3,2.7c-0.5,0.6-1,1.1-1.8,1.4c-0.7,0.2-1.4,0.3-2.3,0.3c-0.5,0-1.1-0.1-1.5-0.2
			c-0.5-0.1-0.7-0.2-1-0.3c0,0-0.5-0.2-0.7,0.3c-0.2,0.4-1.3,3.5-1.4,3.9c-0.1,0.4,0.1,0.7,0.3,0.8c0.6,0.2,1,0.3,1.8,0.5
			c1.1,0.3,2,0.3,2.8,0.3c1.8,0,3.4-0.2,4.7-0.7c1.3-0.5,2.5-1.3,3.5-2.5c1.1-1.2,1.8-2.5,2.5-4.3c0.7-1.7,1.2-3.9,1.7-6.4l4.3-24.5
			h6.3c0,0,0.5,0,0.6-0.6l0.7-4c0-0.4-0.1-0.6-0.6-0.6h-6.1c0-0.1,0.3-2.3,1-4.3c0.3-0.9,0.9-1.6,1.3-2c0.5-0.5,1-0.8,1.6-1
			c0.6-0.2,1.3-0.3,2.1-0.3c0.6,0,1.1,0.1,1.6,0.2c0.6,0.1,0.8,0.2,1,0.2c0.6,0.2,0.7,0,0.8-0.3l1.5-4
			C205.2,89.9,204.9,89.7,204.7,89.7"/>
		<path fill-rule="evenodd" clip-rule="evenodd" fill="#FFFFFF" d="M119,131.2c0,0.3-0.2,0.6-0.5,0.6h-5.1c-0.3,0-0.5-0.3-0.5-0.6
			v-41c0-0.3,0.2-0.6,0.5-0.6h5.1c0.3,0,0.5,0.3,0.5,0.6V131.2z"/>
	</g>
</g>
<g>
	<path d="M116,607.5c0.6,0.4,1.6,0.8,2.5,0.8c1.4,0,2-0.7,2-1.6c0-0.9-0.5-1.4-2-1.9c-1.9-0.7-2.8-1.7-2.8-3c0-1.7,1.4-3.1,3.6-3.1
		c1.1,0,2,0.3,2.6,0.7l-0.5,1.4c-0.4-0.3-1.2-0.6-2.2-0.6c-1.1,0-1.8,0.7-1.8,1.4c0,0.9,0.6,1.3,2,1.8c1.8,0.7,2.8,1.6,2.8,3.2
		c0,1.8-1.4,3.2-3.9,3.2c-1.2,0-2.2-0.3-3-0.7L116,607.5z"/>
	<path d="M125.9,604.5c0,2.6,1.7,3.7,3.6,3.7c1.4,0,2.2-0.2,2.9-0.5l0.3,1.4c-0.7,0.3-1.8,0.7-3.5,0.7c-3.2,0-5.2-2.1-5.2-5.3
		s1.9-5.7,4.9-5.7c3.4,0,4.3,3,4.3,5c0,0.4,0,0.7-0.1,0.9H125.9z M131.6,603.2c0-1.2-0.5-3.1-2.7-3.1c-1.9,0-2.8,1.8-2.9,3.1H131.6z
		"/>
	<path d="M136.8,604.5c0,2.6,1.7,3.7,3.6,3.7c1.4,0,2.2-0.2,2.9-0.5l0.3,1.4c-0.7,0.3-1.8,0.7-3.5,0.7c-3.2,0-5.2-2.1-5.2-5.3
		s1.9-5.7,4.9-5.7c3.4,0,4.3,3,4.3,5c0,0.4,0,0.7-0.1,0.9H136.8z M142.4,603.2c0-1.2-0.5-3.1-2.7-3.1c-1.9,0-2.8,1.8-2.9,3.1H142.4z
		"/>
	<path d="M148.6,603.8L148.6,603.8c0.3-0.4,0.7-0.8,1-1.2l3.1-3.6h2.3l-4.1,4.3l4.6,6.2h-2.3l-3.6-5l-1,1.1v4h-1.9V594h1.9V603.8z"
		/>
	<path d="M157.2,594h1.9v15.4h-1.9V594z"/>
	<path d="M171.9,604.1c0,3.9-2.7,5.6-5.2,5.6c-2.8,0-5-2.1-5-5.4c0-3.5,2.3-5.6,5.2-5.6C169.9,598.7,171.9,600.9,171.9,604.1z
		 M163.5,604.2c0,2.3,1.3,4,3.2,4c1.8,0,3.2-1.7,3.2-4.1c0-1.8-0.9-4-3.2-4C164.5,600.1,163.5,602.2,163.5,604.2z"/>
	<path d="M183.4,598.9c0,0.8-0.1,1.6-0.1,2.9v6.1c0,2.4-0.5,3.9-1.5,4.8c-1,1-2.5,1.3-3.8,1.3c-1.3,0-2.7-0.3-3.5-0.9l0.5-1.5
		c0.7,0.4,1.8,0.8,3.1,0.8c2,0,3.4-1,3.4-3.7v-1.2h0c-0.6,1-1.7,1.8-3.3,1.8c-2.6,0-4.5-2.2-4.5-5.1c0-3.6,2.3-5.6,4.7-5.6
		c1.8,0,2.8,1,3.3,1.8h0l0.1-1.6H183.4z M181.4,603.1c0-0.3,0-0.6-0.1-0.9c-0.3-1.1-1.3-2-2.7-2c-1.8,0-3.1,1.5-3.1,4
		c0,2.1,1,3.8,3.1,3.8c1.2,0,2.2-0.7,2.7-2c0.1-0.3,0.2-0.7,0.2-1V603.1z"/>
	<path d="M196,604.1c0,3.9-2.7,5.6-5.2,5.6c-2.8,0-5-2.1-5-5.4c0-3.5,2.3-5.6,5.2-5.6C194,598.7,196,600.9,196,604.1z M187.6,604.2
		c0,2.3,1.3,4,3.2,4c1.8,0,3.2-1.7,3.2-4.1c0-1.8-0.9-4-3.2-4C188.6,600.1,187.6,602.2,187.6,604.2z"/>
	<path d="M197.4,608.3c0-0.8,0.5-1.4,1.3-1.4c0.8,0,1.3,0.6,1.3,1.4c0,0.8-0.5,1.4-1.3,1.4C198,609.7,197.4,609.1,197.4,608.3z"/>
	<path d="M202.4,601.8c0-1.1,0-2-0.1-2.8h1.7l0.1,1.7h0c0.5-1,1.7-2,3.5-2c1.5,0,3.7,0.9,3.7,4.5v6.3h-1.9v-6.1
		c0-1.7-0.6-3.1-2.4-3.1c-1.3,0-2.2,0.9-2.6,2c-0.1,0.2-0.1,0.6-0.1,0.9v6.3h-1.9V601.8z"/>
	<path d="M215.5,604.5c0,2.6,1.7,3.7,3.6,3.7c1.4,0,2.2-0.2,2.9-0.5l0.3,1.4c-0.7,0.3-1.8,0.7-3.5,0.7c-3.2,0-5.2-2.1-5.2-5.3
		s1.9-5.7,4.9-5.7c3.4,0,4.3,3,4.3,5c0,0.4,0,0.7-0.1,0.9H215.5z M221.1,603.2c0-1.2-0.5-3.1-2.7-3.1c-1.9,0-2.8,1.8-2.9,3.1H221.1z
		"/>
	<path d="M227.7,595.9v3h2.7v1.5h-2.7v5.7c0,1.3,0.4,2,1.4,2c0.5,0,0.9-0.1,1.1-0.1l0.1,1.4c-0.4,0.2-1,0.3-1.7,0.3
		c-0.9,0-1.6-0.3-2.1-0.8c-0.5-0.6-0.7-1.5-0.7-2.7v-5.7h-1.6v-1.5h1.6v-2.5L227.7,595.9z"/>
</g>
</svg>
